<svg width="24" height="24" viewBox="0 0 24 24" fill="none" xmlns="http://www.w3.org/2000/svg">
<path d="M19.625 22L17.583 20.2L16.432 19.13L15.215 18L15.715 19.759H4.947C4.42911 19.7571 3.93315 19.5498 3.56807 19.1824C3.20299 18.8151 2.99867 18.3179 3 17.8V4.957C2.9992 4.43946 3.20376 3.94274 3.56878 3.57584C3.9338 3.20895 4.42946 3.00185 4.947 3H17.678C18.1955 3.00185 18.6912 3.20895 19.0562 3.57584C19.4212 3.94274 19.6258 4.43946 19.625 4.957V22ZM15.1 13.508C14.6783 14.0735 14.0713 14.4728 13.385 14.636C13.667 14.996 14.007 15.403 14.01 15.407C14.5751 15.4189 15.1348 15.2938 15.641 15.0424C16.1473 14.7909 16.5851 14.4205 16.917 13.963C16.8825 12.0377 16.4149 10.1449 15.549 8.425C14.7866 7.82677 13.8586 7.47763 12.891 7.425H12.88L12.747 7.577C13.6113 7.80915 14.4173 8.22 15.113 8.783C14.2278 8.29641 13.2565 7.98665 12.253 7.871C11.6152 7.80017 10.9712 7.80654 10.335 7.89C10.29 7.89089 10.2452 7.89557 10.201 7.904H10.173C9.42735 7.98985 8.69981 8.19232 8.017 8.504C7.675 8.661 7.465 8.775 7.456 8.779C7.447 8.783 7.456 8.779 7.456 8.772C8.194 8.192 9.046 7.772 9.955 7.541L9.855 7.427H9.849C8.88139 7.47976 7.95343 7.82888 7.191 8.427C6.32191 10.1457 5.85416 12.0393 5.823 13.965C6.15062 14.4253 6.58659 14.7979 7.09238 15.0498C7.59817 15.3016 8.1582 15.425 8.723 15.409C8.723 15.409 9.081 14.973 9.36 14.62C8.691 14.4519 8.10152 14.0558 7.693 13.5C7.7 13.505 7.799 13.572 7.959 13.66C7.969 13.673 7.983 13.683 7.998 13.69C8.01065 13.6988 8.02403 13.7065 8.038 13.713C8.27487 13.8469 8.52158 13.9625 8.776 14.059C9.229 14.239 9.698 14.376 10.176 14.469C10.595 14.548 11.02 14.589 11.446 14.589C11.846 14.589 12.244 14.552 12.637 14.479C13.1101 14.3959 13.5721 14.259 14.014 14.071C14.3958 13.9242 14.76 13.7354 15.1 13.508ZM13.062 13.081C12.8492 13.0997 12.6356 13.0537 12.4494 12.949C12.2632 12.8443 12.113 12.6857 12.0184 12.4941C11.9239 12.3025 11.8894 12.0868 11.9196 11.8753C11.9498 11.6638 12.0432 11.4664 12.1876 11.3089C12.332 11.1514 12.5205 11.0412 12.7286 10.9927C12.9367 10.9443 13.1546 10.9598 13.3537 11.0374C13.5528 11.1149 13.7238 11.2508 13.8443 11.4272C13.9648 11.6036 14.0292 11.8123 14.029 12.026C14.051 12.584 13.619 13.056 13.061 13.081H13.062ZM9.594 13.081C9.33006 13.058 9.08432 12.9369 8.9053 12.7416C8.72627 12.5463 8.62696 12.2909 8.62696 12.026C8.62696 11.7611 8.72627 11.5057 8.9053 11.3104C9.08432 11.1151 9.33006 10.994 9.594 10.971C9.71877 10.9713 9.84221 10.9966 9.95697 11.0456C10.0717 11.0946 10.1755 11.1661 10.262 11.256C10.461 11.462 10.569 11.739 10.562 12.025C10.5731 12.2934 10.4774 12.5553 10.2957 12.7532C10.1141 12.9512 9.86139 13.0691 9.593 13.081H9.594Z" fill="black"/>
</svg>
