<svg width="24" height="24" viewBox="0 0 24 24" fill="none" xmlns="http://www.w3.org/2000/svg">
<path d="M12.026 2C9.65708 1.9997 7.36538 2.84248 5.56108 4.3775C3.75679 5.91252 2.55768 8.03957 2.1784 10.3779C1.79912 12.7163 2.26442 15.1133 3.49102 17.1399C4.71762 19.1666 6.62544 20.6905 8.873 21.439C9.373 21.529 9.552 21.222 9.552 20.958C9.552 20.721 9.544 20.093 9.541 19.258C6.766 19.858 6.18 17.92 6.18 17.92C5.99732 17.317 5.60458 16.7993 5.073 16.461C4.173 15.842 5.142 15.856 5.142 15.856C5.782 15.944 6.347 16.323 6.669 16.884C6.80413 17.1297 6.98657 17.3462 7.2058 17.521C7.42503 17.6959 7.6767 17.8255 7.94631 17.9026C8.21591 17.9797 8.49811 18.0026 8.77662 17.9701C9.05512 17.9375 9.32443 17.8502 9.569 17.713C9.615 17.207 9.841 16.734 10.204 16.379C7.99 16.128 5.662 15.272 5.662 11.449C5.64971 10.4602 6.0169 9.5043 6.688 8.778C6.38435 7.91731 6.42011 6.97325 6.788 6.138C6.788 6.138 7.625 5.869 9.53 7.159C11.1638 6.71101 12.8882 6.71101 14.522 7.159C16.428 5.868 17.264 6.138 17.264 6.138C17.634 6.973 17.669 7.918 17.364 8.778C18.0376 9.50423 18.4044 10.4626 18.388 11.453C18.388 15.286 16.058 16.128 13.836 16.375C14.316 16.865 14.561 17.537 14.511 18.221C14.511 19.555 14.499 20.631 14.499 20.958C14.499 21.225 14.677 21.535 15.186 21.437C17.4327 20.6872 19.3392 19.1625 20.5646 17.1357C21.7899 15.1088 22.2541 12.7121 21.874 10.3743C21.4939 8.03655 20.2945 5.91029 18.4901 4.37599C16.6858 2.84169 14.3945 1.99946 12.026 2Z" fill="black"/>
</svg>
