<svg width="24" height="24" viewBox="0 0 24 24" fill="none" xmlns="http://www.w3.org/2000/svg">
<path d="M12 22C6.477 22 2 17.523 2 12C2 6.477 6.477 2 12 2C17.523 2 22 6.477 22 12C21.994 17.52 17.52 21.994 12 22ZM6.807 10.543C6.47398 10.5432 6.15104 10.6572 5.89174 10.8662C5.63243 11.0751 5.45236 11.3664 5.38138 11.6918C5.3104 12.0172 5.35278 12.357 5.50149 12.655C5.65021 12.953 5.89632 13.1911 6.199 13.33C6.18644 13.4761 6.18644 13.6229 6.199 13.769C6.199 16.009 8.814 17.831 12.028 17.831C15.242 17.831 17.858 16.009 17.858 13.769C17.8696 13.6229 17.8696 13.4761 17.858 13.33C18.1526 13.1868 18.3897 12.9476 18.5302 12.6516C18.6706 12.3556 18.706 12.0207 18.6305 11.7019C18.555 11.3831 18.3732 11.0996 18.115 10.898C17.8568 10.6964 17.5376 10.5888 17.21 10.593H17.157C16.7988 10.6062 16.458 10.7512 16.2 11C15.0625 10.2265 13.7252 9.79927 12.35 9.77L13 6.65L15.138 7.1C15.1667 7.36361 15.2989 7.60503 15.5055 7.77118C15.7122 7.93733 15.9764 8.0146 16.24 7.986C16.4953 7.96037 16.731 7.83761 16.8983 7.64309C17.0656 7.44857 17.1517 7.19719 17.1389 6.94094C17.126 6.68469 17.0152 6.44318 16.8293 6.26637C16.6433 6.08955 16.3966 5.99097 16.14 5.991C16.1022 5.99147 16.0644 5.99448 16.027 6C15.8707 6.0166 15.7206 6.0698 15.5887 6.15528C15.4568 6.24076 15.347 6.35612 15.268 6.492L12.82 6C12.7401 5.98335 12.6568 5.9989 12.5883 6.04328C12.5198 6.08765 12.4715 6.15726 12.454 6.237L11.706 9.71C10.3138 9.7297 8.95795 10.157 7.806 10.939C7.53601 10.6839 7.17843 10.5422 6.807 10.543ZM12.18 16.524H11.842C11.0121 16.5208 10.2054 16.2497 9.542 15.751C9.49725 15.6997 9.47363 15.6333 9.47591 15.5652C9.47819 15.4971 9.50621 15.4325 9.5543 15.3843C9.60239 15.336 9.66698 15.3079 9.73504 15.3054C9.80309 15.3029 9.86955 15.3264 9.921 15.371C10.481 15.781 11.159 16.002 11.854 16H12.178C12.864 16.0011 13.5329 15.7863 14.09 15.386C14.1161 15.3594 14.1472 15.3383 14.1815 15.3238C14.2159 15.3094 14.2527 15.302 14.29 15.302C14.3273 15.302 14.3641 15.3094 14.3985 15.3238C14.4328 15.3383 14.4639 15.3594 14.49 15.386C14.5421 15.4398 14.5708 15.5121 14.5699 15.587C14.5689 15.662 14.5384 15.7335 14.485 15.786V15.746C13.8213 16.2481 13.0123 16.5208 12.18 16.523V16.524ZM14.307 14.08H14.291L14.299 14.041C14.0855 14.0264 13.8834 13.9393 13.7261 13.7942C13.5688 13.6491 13.4659 13.4546 13.4343 13.2429C13.4027 13.0312 13.4443 12.8151 13.5523 12.6304C13.6603 12.4456 13.8281 12.3033 14.028 12.2269C14.228 12.1506 14.448 12.1449 14.6516 12.2106C14.8553 12.2764 15.0303 12.4098 15.1478 12.5887C15.2653 12.7675 15.3182 12.9812 15.2976 13.1942C15.2771 13.4072 15.1845 13.6068 15.035 13.76C14.9464 13.8568 14.8393 13.9349 14.7202 13.9898C14.601 14.0448 14.4721 14.0754 14.341 14.08H14.306H14.307ZM9.67 14C9.40478 14 9.15043 13.8946 8.96289 13.7071C8.77536 13.5196 8.67 13.2652 8.67 13C8.67 12.7348 8.77536 12.4804 8.96289 12.2929C9.15043 12.1054 9.40478 12 9.67 12C9.93522 12 10.1896 12.1054 10.3771 12.2929C10.5646 12.4804 10.67 12.7348 10.67 13C10.67 13.2652 10.5646 13.5196 10.3771 13.7071C10.1896 13.8946 9.93522 14 9.67 14Z" fill="black"/>
</svg>
