<svg width="213" height="487" viewBox="0 0 213 487" fill="none" xmlns="http://www.w3.org/2000/svg">
<path d="M0.800051 485.501L0.80005 464.669C0.80005 461.271 1.71472 458.546 3.54405 456.493C5.37338 454.402 7.78138 453.357 10.7681 453.357H14.6881C16.6294 453.357 18.3281 453.917 19.784 455.037C21.2027 456.119 22.2854 457.706 23.0321 459.797H23.1441C23.9281 458.602 24.8241 457.706 25.8321 457.109C26.8401 456.474 28.2401 455.858 30.0321 455.261L40.0001 452.125V460.133L30.7041 463.101C29.0987 463.586 27.9041 464.258 27.1201 465.117C26.3361 465.975 25.9441 467.039 25.9441 468.309V477.773H40.0001V485.501H0.800051ZM19.2801 466.125C19.2801 464.557 18.8694 463.325 18.0481 462.429C17.1894 461.533 16.0881 461.085 14.7441 461.085H11.1041C10.0214 461.085 9.16272 461.421 8.52805 462.093C7.85605 462.765 7.52005 463.661 7.52005 464.781L7.52005 477.773H19.2801V466.125Z" fill="white"/>
<path d="M40.4481 434.494C40.4481 437.444 39.8321 440.057 38.6001 442.334C37.3307 444.574 35.5761 446.329 33.3361 447.598C31.0587 448.83 28.4267 449.446 25.4401 449.446H15.3601C12.3734 449.446 9.76005 448.83 7.52005 447.598C5.24272 446.329 3.48805 444.574 2.25605 442.334C0.986718 440.057 0.352051 437.444 0.352051 434.494L0.352051 428.558C0.352051 425.609 0.986717 423.014 2.25605 420.774C3.48805 418.497 5.24272 416.742 7.52005 415.51C9.76005 414.241 12.3734 413.606 15.36 413.606H25.4401C28.4267 413.606 31.0587 414.241 33.3361 415.51C35.5761 416.742 37.3307 418.497 38.6001 420.774C39.8321 423.014 40.4481 425.609 40.4481 428.558V434.494ZM33.6161 428.558C33.6161 426.393 32.8321 424.657 31.2641 423.35C29.6961 422.006 27.6427 421.334 25.104 421.334H15.696C13.1574 421.334 11.104 422.006 9.53605 423.35C7.96805 424.657 7.18405 426.393 7.18405 428.558L7.18405 434.494C7.18405 436.66 7.96805 438.414 9.53605 439.758C11.104 441.065 13.1574 441.718 15.6961 441.718H25.1041C27.6427 441.718 29.6961 441.065 31.2641 439.758C32.8321 438.414 33.6161 436.66 33.6161 434.494V428.558Z" fill="white"/>
<path d="M0.800047 408.363L0.800047 401.475L24.096 388.651L0.800046 376.107L0.800046 369.219H40V376.779H15.192L30.088 385.011C31.096 385.571 31.824 386.149 32.272 386.747C32.6827 387.307 32.8881 387.96 32.8881 388.707V390.835L15.192 400.803H40V408.363H0.800047Z" fill="white"/>
<path d="M30.872 339.861V354.533L40 358.005V366.069L0.800045 350.725L0.800045 347.253C0.800045 344.827 1.92004 343.184 4.16004 342.325L40 328.381V336.445L30.872 339.861ZM24.376 352.461V341.933L10.264 347.141V347.197L24.376 352.461Z" fill="white"/>
<path d="M0.800044 325.264L0.800044 318.376L27.456 299.56L0.800043 299.56L0.800042 292L40 292V298.888L13.344 317.704L40 317.704V325.264L0.800044 325.264Z" fill="white"/>
<path d="M137 451.251L113.48 469.731L119.24 475.091H137V486.131H81.0001L81.0001 475.091H105.16L81.0001 452.851L81.0001 439.251L105.56 462.291L137 437.811L137 451.251Z" fill="white"/>
<path d="M137.64 416.624C137.64 420.838 136.76 424.571 135 427.824C133.187 431.024 130.68 433.531 127.48 435.344C124.227 437.104 120.467 437.984 116.2 437.984H101.8C97.5335 437.984 93.8001 437.104 90.6001 435.344C87.3468 433.531 84.8401 431.024 83.0801 427.824C81.2668 424.571 80.3601 420.838 80.3601 416.624L80.3601 408.144C80.3601 403.931 81.2668 400.224 83.0801 397.024C84.8401 393.771 87.3468 391.264 90.6001 389.504C93.8001 387.691 97.5335 386.784 101.8 386.784H116.2C120.467 386.784 124.227 387.691 127.48 389.504C130.68 391.264 133.187 393.771 135 397.024C136.76 400.224 137.64 403.931 137.64 408.144V416.624ZM127.88 408.144C127.88 405.051 126.76 402.571 124.52 400.704C122.28 398.784 119.347 397.824 115.72 397.824H102.28C98.6535 397.824 95.7201 398.784 93.4801 400.704C91.2401 402.571 90.1201 405.051 90.1201 408.144L90.1201 416.624C90.1201 419.718 91.2401 422.224 93.4801 424.144C95.7201 426.011 98.6535 426.944 102.28 426.944H115.72C119.347 426.944 122.28 426.011 124.52 424.144C126.76 422.224 127.88 419.718 127.88 416.624V408.144Z" fill="white"/>
<path d="M81.0001 379.294L81.0001 349.534C81.0001 344.68 82.3068 340.787 84.9201 337.854C87.5334 334.867 90.9734 333.374 95.2401 333.374H100.84C103.613 333.374 106.04 334.174 108.12 335.774C110.147 337.32 111.693 339.587 112.76 342.574H112.92C114.04 340.867 115.32 339.587 116.76 338.734C118.2 337.827 120.2 336.947 122.76 336.094L137 331.614V343.054L123.72 347.294C121.427 347.987 119.72 348.947 118.6 350.174C117.48 351.4 116.92 352.92 116.92 354.734V368.254H137V379.294H81.0001ZM107.4 351.614C107.4 349.374 106.813 347.614 105.64 346.334C104.413 345.054 102.84 344.414 100.92 344.414H95.7201C94.1735 344.414 92.9468 344.894 92.0401 345.854C91.0801 346.814 90.6001 348.094 90.6001 349.694V368.254H107.4V351.614Z" fill="white"/>
<path d="M137.64 309.075C137.64 314.942 136.013 319.528 132.76 322.835C129.453 326.142 124.867 327.795 119 327.795V316.915C121.773 316.915 123.96 316.222 125.56 314.835C127.107 313.395 127.88 311.422 127.88 308.915V300.035C127.88 297.688 127.4 295.795 126.44 294.355C125.427 292.862 124.093 292.115 122.44 292.115H119.72C117.107 292.115 115.48 294.035 114.84 297.875L112.36 312.595C111.56 317.395 110.04 321.048 107.8 323.555C105.507 326.008 102.6 327.235 99.0801 327.235H94.6001C91.7735 327.235 89.2935 326.488 87.1601 324.995C84.9734 323.448 83.2934 321.288 82.1201 318.515C80.9468 315.688 80.3601 312.435 80.3601 308.755L80.3601 299.715C80.3601 296.248 81.0801 293.182 82.5201 290.515C83.9601 287.848 85.9868 285.795 88.6001 284.355C91.1601 282.862 94.1468 282.115 97.5601 282.115V292.995C95.3201 292.995 93.5334 293.608 92.2001 294.835C90.8134 296.062 90.1201 297.688 90.1201 299.715L90.1201 308.755C90.1201 310.995 90.6001 312.808 91.5601 314.195C92.5201 315.528 93.8001 316.195 95.4001 316.195H97.5601C100.227 316.195 101.88 314.355 102.52 310.675L105.08 296.035C105.933 291.182 107.453 287.475 109.64 284.915C111.773 282.355 114.547 281.075 117.96 281.075H123.24C126.067 281.075 128.573 281.875 130.76 283.475C132.947 285.022 134.653 287.208 135.88 290.035C137.053 292.862 137.64 296.142 137.64 299.875V309.075Z" fill="white"/>
<path d="M81.0001 274.175L81.0001 263.135H104.12L104.12 237.055H81.0001L81.0001 226.015H137V237.055H113.72V263.135H137L137 274.175H81.0001Z" fill="white"/>
<path d="M137.64 197.408C137.64 201.355 136.813 204.821 135.16 207.808C133.453 210.795 131.08 213.115 128.04 214.768C125 216.421 121.48 217.248 117.48 217.248H81.0001L81.0001 206.208H117.16C120.36 206.208 122.947 205.408 124.92 203.808C126.893 202.155 127.88 200.021 127.88 197.408V188.928C127.88 186.261 126.893 184.101 124.92 182.448C122.947 180.795 120.36 179.968 117.16 179.968L81.0001 179.968L81.0001 168.928H117.48C121.48 168.928 125 169.755 128.04 171.408C131.08 173.061 133.453 175.408 135.16 178.448C136.813 181.488 137.64 184.981 137.64 188.928V197.408Z" fill="white"/>
<path d="M81.0001 160.15L81.0001 150.31L119.08 123.43H81.0001L81.0001 112.63H137V122.47L98.9201 149.35H137V160.15H81.0001Z" fill="white"/>
<path d="M137.64 83.7681C137.64 87.9815 136.76 91.7148 135 94.9681C133.187 98.1681 130.68 100.675 127.48 102.488C124.227 104.248 120.467 105.128 116.2 105.128H101.8C97.5334 105.128 93.8001 104.248 90.6001 102.488C87.3468 100.675 84.8401 98.1681 83.0801 94.9681C81.2668 91.7148 80.3601 87.9815 80.3601 83.7681L80.3601 75.2881C80.3601 71.0748 81.2668 67.3681 83.0801 64.1681C84.8401 60.9148 87.3468 58.4081 90.6001 56.6481C93.8001 54.8348 97.5334 53.9281 101.8 53.9281H116.2C120.467 53.9281 124.227 54.8348 127.48 56.6481C130.68 58.4081 133.187 60.9148 135 64.1681C136.76 67.3681 137.64 71.0748 137.64 75.2881L137.64 83.7681ZM127.88 75.2881C127.88 72.1948 126.76 69.7148 124.52 67.8481C122.28 65.9281 119.347 64.9681 115.72 64.9681H102.28C98.6534 64.9681 95.7201 65.9281 93.4801 67.8481C91.2401 69.7148 90.1201 72.1948 90.1201 75.2881V83.7681C90.1201 86.8615 91.2401 89.3681 93.4801 91.2881C95.7201 93.1548 98.6534 94.0881 102.28 94.0881H115.72C119.347 94.0881 122.28 93.1548 124.52 91.2881C126.76 89.3681 127.88 86.8615 127.88 83.7681V75.2881Z" fill="white"/>
<path d="M137 26.72C137 29.8133 135.293 32.0267 131.88 33.36L81.0001 52.64L81.0001 41.12L123 26.4V26.24L81.0001 11.44L81.0001 0L137 21.52V26.72Z" fill="white"/>
<path d="M195.2 486.328L195.2 473.752H198.08L198.08 483.016H202.592L202.592 474.64H205.472V483.016H212V486.328H195.2Z" fill="white"/>
<path d="M195.2 472.324L195.2 463.396C195.2 461.94 195.592 460.772 196.376 459.892C197.16 458.996 198.192 458.548 199.472 458.548H201.152C201.984 458.548 202.712 458.788 203.336 459.268C203.944 459.732 204.408 460.412 204.728 461.308H204.776C205.112 460.796 205.496 460.412 205.928 460.156C206.36 459.884 206.96 459.62 207.728 459.364L212 458.02V461.452L208.016 462.724C207.328 462.932 206.816 463.22 206.48 463.588C206.144 463.956 205.976 464.412 205.976 464.956L205.976 469.012H212L212 472.324H195.2ZM203.12 464.02C203.12 463.348 202.944 462.82 202.592 462.436C202.224 462.052 201.752 461.86 201.176 461.86H199.616C199.152 461.86 198.784 462.004 198.512 462.292C198.224 462.58 198.08 462.964 198.08 463.444L198.08 469.012H203.12V464.02Z" fill="white"/>
<path d="M212.192 450.704C212.192 451.968 211.928 453.088 211.4 454.064C210.856 455.024 210.104 455.776 209.144 456.32C208.168 456.848 207.04 457.112 205.76 457.112H201.44C200.16 457.112 199.04 456.848 198.08 456.32C197.104 455.776 196.352 455.024 195.824 454.064C195.28 453.088 195.008 451.968 195.008 450.704L195.008 448.16C195.008 446.896 195.28 445.784 195.824 444.824C196.352 443.848 197.104 443.096 198.08 442.568C199.04 442.024 200.16 441.752 201.44 441.752H205.76C207.04 441.752 208.168 442.024 209.144 442.568C210.104 443.096 210.856 443.848 211.4 444.824C211.928 445.784 212.192 446.896 212.192 448.16V450.704ZM209.264 448.16C209.264 447.232 208.928 446.488 208.256 445.928C207.584 445.352 206.704 445.064 205.616 445.064H201.584C200.496 445.064 199.616 445.352 198.944 445.928C198.272 446.488 197.936 447.232 197.936 448.16V450.704C197.936 451.632 198.272 452.384 198.944 452.96C199.616 453.52 200.496 453.8 201.584 453.8H205.616C206.704 453.8 207.584 453.52 208.256 452.96C208.928 452.384 209.264 451.632 209.264 450.704V448.16Z" fill="white"/>
<path d="M195.2 439.745L195.2 436.793L206.624 428.729H195.2L195.2 425.489H212L212 428.441L200.576 436.505H212V439.745H195.2Z" fill="white"/>
<path d="M198.08 418.87L198.08 424.198H195.2L195.2 410.23H198.08L198.08 415.558H212V418.87H198.08Z" fill="white"/>
<path d="M204.416 410.976V403.08H207.248L207.248 410.976H204.416Z" fill="white"/>
<path d="M212 398.825C212 399.513 211.792 400.073 211.376 400.505C210.96 400.937 210.416 401.153 209.744 401.153H195.2L195.2 388.337H198.08L198.08 397.841H201.968L201.968 389.057H204.848L204.848 397.841H209.12L209.12 388.337H212V398.825Z" fill="white"/>
<path d="M195.2 386.563L195.2 383.611L206.624 375.547H195.2L195.2 372.307H212V375.259L200.576 383.323H212L212 386.563H195.2Z" fill="white"/>
<path d="M212 367.488C212 368.176 211.792 368.736 211.376 369.168C210.96 369.6 210.416 369.816 209.744 369.816H195.2L195.2 361.8C195.2 360.52 195.44 359.4 195.92 358.44C196.4 357.464 197.08 356.712 197.96 356.184C198.84 355.64 199.856 355.368 201.008 355.368H205.712C207.776 355.368 209.344 355.904 210.416 356.976C211.472 358.048 212 359.624 212 361.704V367.488ZM209.072 361.8C209.072 360.776 208.776 360 208.184 359.472C207.592 358.944 206.72 358.68 205.568 358.68H201.152C200.24 358.68 199.512 358.976 198.968 359.568C198.408 360.16 198.128 360.936 198.128 361.896L198.128 366.504H209.072V361.8Z" fill="white"/>
<path d="M212 344.683C212 345.371 211.792 345.931 211.376 346.363C210.96 346.795 210.416 347.011 209.744 347.011H195.2L195.2 338.995C195.2 337.715 195.44 336.595 195.92 335.635C196.4 334.659 197.08 333.907 197.96 333.379C198.84 332.835 199.856 332.563 201.008 332.563H205.712C207.776 332.563 209.344 333.099 210.416 334.171C211.472 335.243 212 336.819 212 338.899L212 344.683ZM209.072 338.995C209.072 337.971 208.776 337.195 208.184 336.667C207.592 336.139 206.72 335.875 205.568 335.875H201.152C200.24 335.875 199.512 336.171 198.968 336.763C198.408 337.355 198.128 338.131 198.128 339.091L198.128 343.699H209.072V338.995Z" fill="white"/>
<path d="M212 328.311C212 328.999 211.792 329.559 211.376 329.991C210.96 330.423 210.416 330.639 209.744 330.639H195.2L195.2 317.823H198.08L198.08 327.327H201.968L201.968 318.543H204.848L204.848 327.327H209.12V317.823H212V328.311Z" fill="white"/>
<path d="M212 309.665C212 310.593 211.488 311.257 210.464 311.657L195.2 317.441L195.2 313.985L207.8 309.569V309.521L195.2 305.081L195.2 301.649L212 308.105V309.665Z" fill="white"/>
<path d="M212 298.217C212 298.905 211.792 299.465 211.376 299.897C210.96 300.329 210.416 300.545 209.744 300.545H195.2L195.2 287.729H198.08L198.08 297.233H201.968L201.968 288.449H204.848V297.233H209.12V287.729H212L212 298.217Z" fill="white"/>
<path d="M212 283.626C212 284.33 211.8 284.898 211.4 285.33C210.984 285.746 210.44 285.954 209.768 285.954H195.2L195.2 282.642H209.12V273.522H212V283.626Z" fill="white"/>
<path d="M212.192 267.03C212.192 268.294 211.928 269.414 211.4 270.39C210.856 271.35 210.104 272.102 209.144 272.646C208.168 273.174 207.04 273.438 205.76 273.438H201.44C200.16 273.438 199.04 273.174 198.08 272.646C197.104 272.102 196.352 271.35 195.824 270.39C195.28 269.414 195.008 268.294 195.008 267.03L195.008 264.486C195.008 263.222 195.28 262.11 195.824 261.15C196.352 260.174 197.104 259.422 198.08 258.894C199.04 258.35 200.16 258.078 201.44 258.078H205.76C207.04 258.078 208.168 258.35 209.144 258.894C210.104 259.422 210.856 260.174 211.4 261.15C211.928 262.11 212.192 263.222 212.192 264.486V267.03ZM209.264 264.486C209.264 263.558 208.928 262.814 208.256 262.254C207.584 261.678 206.704 261.39 205.616 261.39H201.584C200.496 261.39 199.616 261.678 198.944 262.254C198.272 262.814 197.936 263.558 197.936 264.486V267.03C197.936 267.958 198.272 268.71 198.944 269.286C199.616 269.846 200.496 270.126 201.584 270.126H205.616C206.704 270.126 207.584 269.846 208.256 269.286C208.928 268.71 209.264 267.958 209.264 267.03V264.486Z" fill="white"/>
<path d="M195.2 256.071L195.2 247.215C195.2 246.239 195.392 245.375 195.776 244.623C196.144 243.871 196.68 243.287 197.384 242.871C198.072 242.455 198.864 242.247 199.76 242.247H201.992C202.92 242.247 203.744 242.463 204.464 242.895C205.168 243.327 205.72 243.935 206.12 244.719C206.504 245.487 206.696 246.383 206.696 247.407V252.759H212L212 256.071H195.2ZM203.816 247.455C203.816 246.895 203.64 246.439 203.288 246.087C202.92 245.735 202.44 245.559 201.848 245.559L199.904 245.559C199.344 245.559 198.904 245.719 198.584 246.039C198.248 246.343 198.08 246.751 198.08 247.263L198.08 252.759H203.816V247.455Z" fill="white"/>
<path d="M212 238.566C212 239.254 211.792 239.814 211.376 240.246C210.96 240.678 210.416 240.894 209.744 240.894L195.2 240.894L195.2 228.078H198.08L198.08 237.582H201.968L201.968 228.798H204.848L204.848 237.582H209.12V228.078H212V238.566Z" fill="white"/>
<path d="M195.2 226.304L195.2 217.376C195.2 215.92 195.592 214.752 196.376 213.872C197.16 212.976 198.192 212.528 199.472 212.528L201.152 212.528C201.984 212.528 202.712 212.768 203.336 213.248C203.944 213.712 204.408 214.392 204.728 215.288H204.776C205.112 214.776 205.496 214.392 205.928 214.136C206.36 213.864 206.96 213.6 207.728 213.344L212 212V215.432L208.016 216.704C207.328 216.912 206.816 217.2 206.48 217.568C206.144 217.936 205.976 218.392 205.976 218.936V222.992H212V226.304L195.2 226.304ZM203.12 218C203.12 217.328 202.944 216.8 202.592 216.416C202.224 216.032 201.752 215.84 201.176 215.84H199.616C199.152 215.84 198.784 215.984 198.512 216.272C198.224 216.56 198.08 216.944 198.08 217.424L198.08 222.992H203.12L203.12 218Z" fill="white"/>
</svg>
