<svg width="17" height="19" viewBox="0 0 17 19" fill="none" xmlns="http://www.w3.org/2000/svg">
<path d="M16.625 19L14.583 17.2L13.432 16.13L12.215 15L12.715 16.759H1.947C1.42911 16.7571 0.933145 16.5498 0.568069 16.1824C0.202992 15.8151 -0.00132876 15.3179 -2.37387e-07 14.8V1.957C-0.000798146 1.43946 0.203757 0.942739 0.568776 0.575845C0.933795 0.20895 1.42946 0.00185343 1.947 0H14.678C15.1955 0.00185343 15.6912 0.20895 16.0562 0.575845C16.4212 0.942739 16.6258 1.43946 16.625 1.957V19ZM12.1 10.508C11.6783 11.0735 11.0713 11.4728 10.385 11.636C10.667 11.996 11.007 12.403 11.01 12.407C11.5751 12.4189 12.1348 12.2938 12.641 12.0424C13.1473 11.7909 13.5851 11.4205 13.917 10.963C13.8825 9.03771 13.4149 7.14491 12.549 5.425C11.7866 4.82677 10.8586 4.47763 9.891 4.425H9.88L9.747 4.577C10.6113 4.80915 11.4173 5.22 12.113 5.783C11.2278 5.29641 10.2565 4.98665 9.253 4.871C8.61523 4.80017 7.97124 4.80654 7.335 4.89C7.29002 4.89089 7.24519 4.89557 7.201 4.904H7.173C6.42735 4.98985 5.69981 5.19232 5.017 5.504C4.675 5.661 4.465 5.775 4.456 5.779C4.447 5.783 4.456 5.779 4.456 5.772C5.194 5.192 6.046 4.772 6.955 4.541L6.855 4.427H6.849C5.88139 4.47976 4.95343 4.82888 4.191 5.427C3.32191 7.14573 2.85416 9.03928 2.823 10.965C3.15062 11.4253 3.58659 11.7979 4.09238 12.0498C4.59817 12.3016 5.1582 12.425 5.723 12.409C5.723 12.409 6.081 11.973 6.36 11.62C5.691 11.4519 5.10152 11.0558 4.693 10.5C4.7 10.505 4.799 10.572 4.959 10.66C4.969 10.673 4.983 10.683 4.998 10.69C5.01065 10.6988 5.02403 10.7065 5.038 10.713C5.27487 10.8469 5.52158 10.9625 5.776 11.059C6.229 11.239 6.698 11.376 7.176 11.469C7.595 11.548 8.02 11.589 8.446 11.589C8.846 11.589 9.244 11.552 9.637 11.479C10.1101 11.3959 10.5721 11.259 11.014 11.071C11.3958 10.9242 11.76 10.7354 12.1 10.508ZM10.062 10.081C9.84917 10.0997 9.63564 10.0537 9.44942 9.94901C9.26319 9.84428 9.11296 9.68572 9.01842 9.49412C8.92388 9.30252 8.88945 9.08683 8.91963 8.87532C8.94982 8.66381 9.04322 8.46636 9.18759 8.30885C9.33195 8.15135 9.52054 8.04115 9.72863 7.9927C9.93672 7.94425 10.1546 7.95982 10.3537 8.03735C10.5528 8.11489 10.7238 8.25078 10.8443 8.4272C10.9648 8.60362 11.0292 8.81235 11.029 9.026C11.051 9.584 10.619 10.056 10.061 10.081H10.062ZM6.594 10.081C6.33006 10.058 6.08432 9.93689 5.9053 9.74158C5.72627 9.54627 5.62696 9.29095 5.62696 9.026C5.62696 8.76105 5.72627 8.50573 5.9053 8.31042C6.08432 8.11511 6.33006 7.99401 6.594 7.971C6.71877 7.97127 6.84221 7.99664 6.95697 8.0456C7.07173 8.09456 7.17547 8.16611 7.262 8.256C7.461 8.462 7.569 8.739 7.562 9.025C7.57312 9.29342 7.47736 9.5553 7.29573 9.75325C7.11409 9.95119 6.86139 10.0691 6.593 10.081H6.594Z" fill="black"/>
</svg>
